<mxfile host="65bd71144e">
    <diagram id="VWJbOv0XGuMUOwVk9Br_" name="Page-1">
        <mxGraphModel dx="1043" dy="486" grid="1" gridSize="10" guides="1" tooltips="1" connect="1" arrows="1" fold="1" page="1" pageScale="1" pageWidth="850" pageHeight="1100" math="0" shadow="0">
            <root>
                <mxCell id="0"/>
                <mxCell id="1" parent="0"/>
                <mxCell id="2" value="2" style="whiteSpace=wrap;html=1;" parent="1" vertex="1">
                    <mxGeometry x="160" y="230" width="80" height="60" as="geometry"/>
                </mxCell>
                <mxCell id="11" value="" style="edgeStyle=none;html=1;" parent="1" source="3" target="2" edge="1">
                    <mxGeometry relative="1" as="geometry"/>
                </mxCell>
                <mxCell id="3" value="8" style="whiteSpace=wrap;html=1;" parent="1" vertex="1">
                    <mxGeometry x="340" y="230" width="80" height="60" as="geometry"/>
                </mxCell>
                <mxCell id="10" value="" style="edgeStyle=none;html=1;" parent="1" source="4" target="3" edge="1">
                    <mxGeometry relative="1" as="geometry"/>
                </mxCell>
                <mxCell id="4" value="7" style="whiteSpace=wrap;html=1;" parent="1" vertex="1">
                    <mxGeometry x="510" y="230" width="80" height="60" as="geometry"/>
                </mxCell>
                <mxCell id="8" value="last" style="text;html=1;align=center;verticalAlign=middle;resizable=0;points=[];autosize=1;strokeColor=none;fillColor=none;" parent="1" vertex="1">
                    <mxGeometry x="180" y="305" width="40" height="30" as="geometry"/>
                </mxCell>
                <mxCell id="9" value="first" style="text;html=1;align=center;verticalAlign=middle;resizable=0;points=[];autosize=1;strokeColor=none;fillColor=none;" parent="1" vertex="1">
                    <mxGeometry x="530" y="305" width="40" height="30" as="geometry"/>
                </mxCell>
                <mxCell id="12" value="Queue data structure is last in first out, like a line up where the person waited the longest gets the ticket first" style="text;html=1;align=center;verticalAlign=middle;resizable=0;points=[];autosize=1;strokeColor=none;fillColor=none;" parent="1" vertex="1">
                    <mxGeometry x="80" y="350" width="600" height="30" as="geometry"/>
                </mxCell>
            </root>
        </mxGraphModel>
    </diagram>
</mxfile>